<?xml version="1.0" encoding="utf-8"?>
<svg viewBox="99.305 122.332 340.68 67.5" xmlns="http://www.w3.org/2000/svg">
  <g transform="matrix(1, 0, 0, 1, 95.304764, 118.251808)">
    <path class="f" d="M12.5,17.78v17H29.4v7.4H12.5v28H4V10.08h31.2v7.7H12.5Z" style="fill: rgb(163, 32, 53);"/>
    <path class="f" d="M63.71,70.19v-6.4h-.2c-1.73,2.6-3.62,4.52-5.65,5.75-2.03,1.23-4.45,1.85-7.25,1.85-4.67,0-8.4-1.63-11.2-4.9-2.8-3.27-4.2-7.73-4.2-13.4V27.68h8.2v24.4c0,4,.78,7.02,2.35,9.05,1.57,2.03,3.85,3.05,6.85,3.05,4.2,0,7.53-2.17,10-6.5V27.68h8.2v42.5h-7.1Z" style="fill: rgb(163, 32, 53);"/>
    <path class="f" d="M94.83,70.19c-.87,.2-1.68,.37-2.45,.5-.77,.13-1.52,.2-2.25,.2-6,0-9-3.73-9-11.2v-26.3h-5.2v-5.7h5.2V12.98h8.2v14.7h5.3v5.7h-5.3v26.3c0,3.2,1.63,4.8,4.9,4.8h.6v5.7Z" style="fill: rgb(163, 32, 53);"/>
    <path class="f" d="M128.45,70.19v-6.4h-.2c-1.73,2.6-3.62,4.52-5.65,5.75-2.03,1.23-4.45,1.85-7.25,1.85-4.67,0-8.4-1.63-11.2-4.9-2.8-3.27-4.2-7.73-4.2-13.4V27.68h8.2v24.4c0,4,.78,7.02,2.35,9.05,1.57,2.03,3.85,3.05,6.85,3.05,4.2,0,7.53-2.17,10-6.5V27.68h8.2v42.5h-7.1Z" style="fill: rgb(163, 32, 53);"/>
    <path class="f" d="M163.39,36.08c-1.33-.87-2.67-1.3-4-1.3-3.34,0-6.27,2.43-8.8,7.3v28.1h-8.2V27.68h7.1v8.3h.2c1.67-3.2,3.3-5.58,4.9-7.15,1.6-1.57,3.33-2.35,5.2-2.35,2.13,0,4.17,.9,6.1,2.7l-2.5,6.9Z" style="fill: rgb(163, 32, 53);"/>
    <path class="f" d="M174.59,50.68c.13,4.4,1.28,7.82,3.45,10.25,2.17,2.43,4.95,3.65,8.35,3.65,4,0,7.67-1.36,11-4.1l3.9,4.9c-2.07,2.14-4.37,3.7-6.9,4.7-2.54,1-5.4,1.5-8.6,1.5-2.94,0-5.62-.53-8.05-1.6-2.43-1.07-4.52-2.57-6.25-4.5-1.73-1.93-3.1-4.28-4.1-7.05-1-2.77-1.5-5.82-1.5-9.15s.48-6.6,1.45-9.4c.97-2.8,2.3-5.2,4-7.2,1.7-2,3.75-3.53,6.15-4.6,2.4-1.07,5.03-1.6,7.9-1.6,2.6,0,5,.48,7.2,1.45,2.2,.97,4.1,2.37,5.7,4.2s2.83,4.05,3.7,6.65c.87,2.6,1.3,5.5,1.3,8.7v3.2h-28.7Zm20.7-5.8c-.27-3.67-1.27-6.48-3.02-8.45-1.74-1.97-4.05-2.95-6.93-2.95s-5.36,1-7.24,3c-1.87,2-2.98,4.8-3.32,8.4h20.5Z" style="fill: rgb(163, 32, 53);"/>
    <path class="h" d="M220.36,17.18v53.01h-8.8V17.18h-16.8v-7.1h42.51v7.1h-16.9Z" style="fill: rgb(136, 139, 141);"/>
    <path class="h" d="M237.42,50.68c.13,4.4,1.28,7.82,3.45,10.25,2.17,2.43,4.95,3.65,8.35,3.65,4,0,7.67-1.36,11-4.1l3.9,4.9c-2.07,2.14-4.37,3.7-6.9,4.7-2.54,1-5.4,1.5-8.6,1.5-2.94,0-5.62-.53-8.05-1.6-2.43-1.07-4.52-2.57-6.25-4.5-1.73-1.93-3.1-4.28-4.1-7.05-1-2.77-1.5-5.82-1.5-9.15s.48-6.6,1.45-9.4c.97-2.8,2.3-5.2,4-7.2,1.7-2,3.75-3.53,6.15-4.6,2.4-1.07,5.03-1.6,7.9-1.6,2.6,0,5,.48,7.2,1.45,2.2,.97,4.1,2.37,5.7,4.2,1.6,1.83,2.83,4.05,3.7,6.65,.87,2.6,1.3,5.5,1.3,8.7v3.2h-28.7Zm20.7-5.8c-.27-3.67-1.27-6.48-3.02-8.45-1.74-1.97-4.05-2.95-6.93-2.95s-5.36,1-7.24,3c-1.87,2-2.98,4.8-3.32,8.4h20.5Z" style="fill: rgb(136, 139, 141);"/>
    <path class="h" d="M303.95,66.75c-3.67,3.22-8.04,4.83-13.1,4.83-2.8,0-5.4-.53-7.8-1.6-2.4-1.07-4.48-2.58-6.25-4.55-1.77-1.97-3.13-4.32-4.1-7.05-.97-2.73-1.45-5.77-1.45-9.1s.53-6.3,1.6-9.1c1.07-2.8,2.55-5.22,4.45-7.25,1.9-2.03,4.12-3.62,6.65-4.75,2.53-1.13,5.27-1.7,8.2-1.7,4.4,0,8.33,1.13,11.8,3.4l-3.6,7c-2.53-1.8-5.27-2.7-8.2-2.7-1.73,0-3.34,.37-4.8,1.11-1.47,.74-2.75,1.76-3.85,3.06-1.1,1.3-1.97,2.89-2.6,4.77-.63,1.87-.95,3.91-.95,6.12,0,4.62,1.08,8.26,3.25,10.94,2.17,2.67,5.02,4.01,8.55,4.01,3.13,0,6.07-1.03,8.8-3.1l3.4,5.67Z" style="fill: rgb(136, 139, 141);"/>
    <path class="h" d="M336.68,70.19v-24.3c0-8.13-3.19-12.2-9.55-12.2-4.09,0-7.37,2.1-9.85,6.3v30.2h-8.2V4.08h8.2v29h.2c3.2-4.4,7.13-6.6,11.8-6.6s8.4,1.63,11.2,4.9c2.8,3.27,4.2,7.77,4.2,13.5v25.3h-8Z" style="fill: rgb(136, 139, 141);"/>
  </g>
</svg>